<svg xmlns="http://www.w3.org/2000/svg" viewBox="0 0 230 70" fill="#016450"><path d="M84.20633,45.97967H80.40454V23.594h5.15192v9.523a5.36254,5.36254,0,0,1,5.29393-3.34028c4.65445,0,7.39043,3.69547,7.39043,8.31481,0,4.65476-2.736,8.3145-7.56786,8.3145a5.55226,5.55226,0,0,1-5.40082-3.30454Zm1.24355-7.56839c0,2.5227,1.599,4.15725,3.76637,4.15725,2.45136,0,3.80149-1.91889,3.80149-4.477,0-2.55843-1.35013-4.47732-3.80149-4.47732-2.16735,0-3.76637,1.63456-3.76637,4.15755Z"/><path d="M117.3915,41.78668c-1.06581,3.09137-3.87265,4.61934-7.81645,4.61934-5.1165,0-8.70513-3.23338-8.70513-8.0659a8.33761,8.33761,0,0,1,8.59855-8.56341c5.32935,0,7.99418,3.62431,7.99418,7.85272V38.9088H105.951a3.967,3.967,0,0,0,7.46128,1.67Zm-4.65444-5.29429a3.12873,3.12873,0,0,0-3.26859-3.16222,3.39147,3.39147,0,0,0-3.4109,3.16222Z"/><path d="M122.86317,40.64964c.99465,1.528,3.26858,2.34525,5.22277,2.34525,1.599,0,2.66483-.39093,2.66483-1.27906,0-.81728-.74607-1.10162-1.81218-1.3148l-3.30432-.63953c-3.162-.63953-5.2585-2.13207-5.2585-4.9391,0-2.87819,2.736-5.04569,6.85752-5.04569,3.62406,0,5.96915,1.17278,7.60329,3.1271l-2.84226,2.1672a6.18593,6.18593,0,0,0-4.761-1.88316c-1.10154,0-2.13192.39092-2.13192,1.24363,0,.56867.462.9596,1.35013,1.137l4.22811.92387c2.70026.6041,4.79676,1.95432,4.79676,4.61933,0,3.23339-2.878,5.2943-7.39043,5.2943-3.26889,0-6.85722-1.17247-8.45624-3.48229Z"/><path d="M140.55714,30.20307V26.33015l4.97418-.995v4.86794h5.82714v3.55345h-5.82714v6.18273a2.07829,2.07829,0,0,0,2.13193,2.34495c1.56329,0,2.13162-.74612,3.05542-2.27409l2.48709,2.98478a7.55384,7.55384,0,0,1-6.43089,3.41113c-3.48175,0-6.21773-1.88316-6.21773-6.07615V33.75652h-2.94885V30.20307Z"/><path d="M163.97227,46.406c-5.04534,0-8.84714-3.41113-8.84714-8.3145,0-4.86794,3.8018-8.31481,8.84714-8.31481s8.81141,3.44687,8.81141,8.31481C172.78368,42.99489,169.01761,46.406,163.97227,46.406Zm0-3.7309c2.27393,0,3.58863-1.84773,3.58863-4.5836,0-2.73617-1.3147-4.58391-3.58863-4.58391s-3.58863,1.84774-3.58863,4.58391C160.38364,40.82739,161.69834,42.67512,163.97227,42.67512Z"/><path d="M192.39671,39.79693h.142l2.736-9.59386H200l-4.761,15.7766h-5.00962L187.31594,36.457h-.14231l-2.91341,9.52271h-5.04534l-4.761-15.7766h5.08077l2.736,9.59386h.142l2.91342-9.59386h4.12154Z"/><path d="M63.06121,17.45578l-.05786-.05838a8.49093,8.49093,0,0,0-12.085,0l-.79186.79909-.78838-.79555a8.49093,8.49093,0,0,0-12.085,0l-.05786.05838a8.6886,8.6886,0,0,0,.00008,12.19473l12.944,13.06179,3.77627-3.81063L40.97176,25.84343A3.25858,3.25858,0,0,1,40.97168,21.27l.05786-.05846a3.18823,3.18823,0,0,1,4.53226,0l4.567,4.60847,3.77627-3.81062-.00224-.00226.7919-.79913a3.18823,3.18823,0,0,1,4.53226,0l.05786.05847a3.25857,3.25857,0,0,1-.00008,4.5734l-4.56867,4.61033,3.77627,3.81062,4.56875-4.61032A8.68862,8.68862,0,0,0,63.06121,17.45578Z"/><path d="M50.12827,55.12827A20.15113,20.15113,0,0,1,30,35h5.36754A14.76073,14.76073,0,1,0,64.889,35h5.36754A20.15113,20.15113,0,0,1,50.12827,55.12827Z"/></svg>